# xmcd
#
# Track frame offsets:
#  150
#  16635
#  37263
#  54944
#  79448
#  101669
#  123731
#  145672
#  167540
#  185399
#  208771
#  231502
#
# Disc length: 3389 seconds
#
# Revision: 0
# Processed by: cddbd v1.5.2PL0 Copyright (c) Steve Scherf et al.
# Submitted via: Collectorz.com_Music_Collector 6.11
#
DISCID=a40d3b0c
DTITLE=Various Artist - ThriveMix Presents Dance Anthems [CD2)
DYEAR=2007
DGENRE=
TTITLE0=September - Cry For You (Radio Edit)
TTITLE1=Soul Corporation - Let's Go Together (Simmons and Christopher Instrumental)
TTITLE2=Nicola Fasano feat. Paula B - Been A Long Time (Club Version)
TTITLE3=Karen Overton - Your Loving Arms (Damien Heck Remix)
TTITLE4=Jenna Drey - By The Way (DJ Escape and Johnny Vicious Club Mix)
TTITLE5=Therese - Time (Stonebridge Vocal Mix)
TTITLE6=Francesco Diaz pres. Denis The Menace and Jerry Ropero - Time To Turn Around (Full Vocal Mix)
TTITLE7=Jacinta - Destination (Aurora Club Mix)
TTITLE8=Bump - I'm Rushing (Dave Spoon Vocal Mix)
TTITLE9=Cassie - Me and U (Tyler Nelson Private Mix)
TTITLE10=Faithless - Bombs (Benny Benassi Mix)
TTITLE11=Taxi Doll - Waiting (Josh Harris Club Mix)
EXTD=
EXTT0=
EXTT1=
EXTT2=
EXTT3=
EXTT4=
EXTT5=
EXTT6=
EXTT7=
EXTT8=
EXTT9=
EXTT10=
EXTT11=
PLAYORDER=
